# Blender v2.78 (sub 0) OBJ File: ''
# www.blender.org
o Cube_Cube.001
v -0.005000 -0.005000 0.005000
v -0.005000 0.005000 0.005000
v -0.005000 -0.005000 -0.005000
v -0.005000 0.005000 -0.005000
v 0.005000 -0.005000 0.005000
v 0.005000 0.005000 0.005000
v 0.005000 -0.005000 -0.005000
v 0.005000 0.005000 -0.005000
v -0.005000 -0.003499 0.003499
v -0.005000 0.003499 0.003499
v -0.005000 0.003499 -0.003499
v -0.005000 -0.003499 -0.003499
v -0.003499 -0.003499 -0.005000
v -0.003499 0.003499 -0.005000
v 0.003499 0.003499 -0.005000
v 0.003499 -0.003499 -0.005000
v 0.005000 -0.003499 -0.003499
v 0.005000 0.003499 -0.003499
v 0.005000 0.003499 0.003499
v 0.005000 -0.003499 0.003499
v 0.003499 -0.003499 0.005000
v 0.003499 0.003499 0.005000
v -0.003499 0.003499 0.005000
v -0.003499 -0.003499 0.005000
v -0.003499 -0.005000 -0.003499
v 0.003499 -0.005000 -0.003499
v 0.003499 -0.005000 0.003499
v -0.003499 -0.005000 0.003499
v 0.003499 0.005000 -0.003499
v -0.003499 0.005000 -0.003499
v -0.003499 0.005000 0.003499
v 0.003499 0.005000 0.003499
v -0.003500 -0.003500 0.003500
v -0.003500 0.003500 0.003500
v -0.003500 -0.003500 -0.003500
v -0.003500 0.003500 -0.003500
v 0.003500 -0.003500 0.003500
v 0.003500 0.003500 0.003500
v 0.003500 -0.003500 -0.003500
v 0.003500 0.003500 -0.003500
v -0.003500 -0.003499 0.003499
v -0.003500 0.003499 0.003499
v -0.003500 0.003499 -0.003499
v -0.003500 -0.003499 -0.003499
v -0.003499 -0.003499 -0.003500
v -0.003499 0.003499 -0.003500
v 0.003499 0.003499 -0.003500
v 0.003499 -0.003499 -0.003500
v 0.003500 -0.003499 -0.003499
v 0.003500 0.003499 -0.003499
v 0.003500 0.003499 0.003499
v 0.003500 -0.003499 0.003499
v 0.003499 -0.003499 0.003500
v 0.003499 0.003499 0.003500
v -0.003499 0.003499 0.003500
v -0.003499 -0.003499 0.003500
v -0.003499 -0.003500 -0.003499
v 0.003499 -0.003500 -0.003499
v 0.003499 -0.003500 0.003499
v -0.003499 -0.003500 0.003499
v 0.003499 0.003500 -0.003499
v -0.003499 0.003500 -0.003499
v -0.003499 0.003500 0.003499
v 0.003499 0.003500 0.003499
vt 0.3333 0.6667
vt 0.0000 0.6667
vt 0.0500 0.6166
vt 0.2833 0.6166
vt 0.0000 0.3333
vt 0.0500 0.3834
vt 0.3333 0.3333
vt 0.2833 0.3834
vt 0.3333 0.0000
vt 0.3333 0.3333
vt 0.2833 0.2833
vt 0.2833 0.0500
vt 0.0000 0.3333
vt 0.0500 0.2833
vt 0.0000 0.0000
vt 0.0500 0.0500
vt 0.6667 0.0000
vt 0.6667 0.3333
vt 0.6166 0.2833
vt 0.6166 0.0500
vt 0.3333 0.3333
vt 0.3834 0.2833
vt 0.3333 0.0000
vt 0.3834 0.0500
vt 0.3333 0.6667
vt 0.3834 0.3834
vt 0.3834 0.6166
vt 0.6667 0.3333
vt 0.6166 0.3834
vt 0.6667 0.6667
vt 0.6166 0.6166
vt 0.6667 0.0000
vt 1.0000 0.0000
vt 0.9500 0.0500
vt 0.7167 0.0500
vt 1.0000 0.3333
vt 0.9500 0.2833
vt 0.6667 0.3333
vt 0.7167 0.2833
vt 0.6667 1.0000
vt 0.3333 1.0000
vt 0.3834 0.9500
vt 0.6166 0.9500
vt 0.3333 0.6667
vt 0.3834 0.7167
vt 0.6667 0.6667
vt 0.6166 0.7167
vt 0.3333 0.6667
vt 0.2833 0.6166
vt 0.0500 0.6166
vt 0.0000 0.6667
vt 0.0500 0.3834
vt 0.0000 0.3333
vt 0.2833 0.3834
vt 0.3333 0.3333
vt 0.3333 0.0000
vt 0.2833 0.0500
vt 0.2833 0.2833
vt 0.3333 0.3333
vt 0.0500 0.2833
vt 0.0000 0.3333
vt 0.0500 0.0500
vt 0.0000 0.0000
vt 0.6667 0.0000
vt 0.6166 0.0500
vt 0.6166 0.2833
vt 0.6667 0.3333
vt 0.3834 0.2833
vt 0.3333 0.3333
vt 0.3834 0.0500
vt 0.3333 0.0000
vt 0.3333 0.6667
vt 0.3834 0.6166
vt 0.3834 0.3834
vt 0.6166 0.3834
vt 0.6667 0.3333
vt 0.6166 0.6166
vt 0.6667 0.6667
vt 0.6667 0.0000
vt 0.7167 0.0500
vt 0.9500 0.0500
vt 1.0000 0.0000
vt 0.9500 0.2833
vt 1.0000 0.3333
vt 0.7167 0.2833
vt 0.6667 0.3333
vt 0.6667 1.0000
vt 0.6166 0.9500
vt 0.3834 0.9500
vt 0.3333 1.0000
vt 0.3834 0.7167
vt 0.3333 0.6667
vt 0.6166 0.7167
vt 0.6667 0.6667
vn -1.0000 0.0000 0.0000
vn 0.0000 0.0000 -1.0000
vn 1.0000 0.0000 0.0000
vn 0.0000 0.0000 1.0000
vn 0.0000 -1.0000 0.0000
vn 0.0000 1.0000 0.0000
vn 1.0000 0.0001 0.0000
vn 1.0000 -0.0001 0.0000
vn -0.0001 0.0000 1.0000
vn 0.0001 0.0000 1.0000
vn -1.0000 0.0001 0.0000
vn -1.0000 -0.0001 0.0000
vn 0.0001 0.0000 -1.0000
vn -0.0001 0.0000 -1.0000
vn 0.0000 1.0000 -0.0001
vn 0.0000 1.0000 0.0001
vn 0.0000 -1.0000 -0.0001
vn 0.0000 -1.0000 0.0001
s off
f 1/1/1 2/2/1 10/3/1 9/4/1
f 2/2/1 4/5/1 11/6/1 10/3/1
f 4/5/1 3/7/1 12/8/1 11/6/1
f 3/7/1 1/1/1 9/4/1 12/8/1
f 3/9/2 4/10/2 14/11/2 13/12/2
f 4/10/2 8/13/2 15/14/2 14/11/2
f 8/13/2 7/15/2 16/16/2 15/14/2
f 7/15/2 3/9/2 13/12/2 16/16/2
f 7/17/3 8/18/3 18/19/3 17/20/3
f 8/18/3 6/21/3 19/22/3 18/19/3
f 6/21/3 5/23/3 20/24/3 19/22/3
f 5/23/3 7/17/3 17/20/3 20/24/3
f 5/25/4 6/21/4 22/26/4 21/27/4
f 6/21/4 2/28/4 23/29/4 22/26/4
f 2/28/4 1/30/4 24/31/4 23/29/4
f 1/30/4 5/25/4 21/27/4 24/31/4
f 3/32/5 7/33/5 26/34/5 25/35/5
f 7/33/5 5/36/5 27/37/5 26/34/5
f 5/36/5 1/38/5 28/39/5 27/37/5
f 1/38/5 3/32/5 25/35/5 28/39/5
f 8/40/6 4/41/6 30/42/6 29/43/6
f 4/41/6 2/44/6 31/45/6 30/42/6
f 2/44/6 6/46/6 32/47/6 31/45/6
f 6/46/6 8/40/6 29/43/6 32/47/6
f 33/48/3 41/49/3 42/50/3 34/51/3
f 34/51/7 42/50/7 43/52/7 36/53/7
f 36/53/3 43/52/3 44/54/3 35/55/3
f 35/55/8 44/54/8 41/49/8 33/48/8
f 35/56/9 45/57/9 46/58/9 36/59/9
f 36/59/4 46/58/4 47/60/4 40/61/4
f 40/61/10 47/60/10 48/62/10 39/63/10
f 39/63/4 48/62/4 45/57/4 35/56/4
f 39/64/1 49/65/1 50/66/1 40/67/1
f 40/67/11 50/66/11 51/68/11 38/69/11
f 38/69/1 51/68/1 52/70/1 37/71/1
f 37/71/12 52/70/12 49/65/12 39/64/12
f 37/72/13 53/73/13 54/74/13 38/69/13
f 38/69/2 54/74/2 55/75/2 34/76/2
f 34/76/14 55/75/14 56/77/14 33/78/14
f 33/78/2 56/77/2 53/73/2 37/72/2
f 35/79/15 57/80/15 58/81/15 39/82/15
f 39/82/6 58/81/6 59/83/6 37/84/6
f 37/84/16 59/83/16 60/85/16 33/86/16
f 33/86/6 60/85/6 57/80/6 35/79/6
f 40/87/17 61/88/17 62/89/17 36/90/17
f 36/90/5 62/89/5 63/91/5 34/92/5
f 34/92/18 63/91/18 64/93/18 38/94/18
f 38/94/5 64/93/5 61/88/5 40/87/5
f 9/4/2 10/3/2 42/50/2 41/49/2
f 12/8/6 9/4/6 41/49/6 44/54/6
f 10/3/5 11/6/5 43/52/5 42/50/5
f 11/6/4 12/8/4 44/54/4 43/52/4
f 13/12/3 14/11/3 46/58/3 45/57/3
f 16/16/6 13/12/6 45/57/6 48/62/6
f 14/11/5 15/14/5 47/60/5 46/58/5
f 15/14/1 16/16/1 48/62/1 47/60/1
f 17/20/4 18/19/4 50/66/4 49/65/4
f 20/24/6 17/20/6 49/65/6 52/70/6
f 18/19/5 19/22/5 51/68/5 50/66/5
f 19/22/2 20/24/2 52/70/2 51/68/2
f 21/27/1 22/26/1 54/74/1 53/73/1
f 24/31/6 21/27/6 53/73/6 56/77/6
f 22/26/5 23/29/5 55/75/5 54/74/5
f 23/29/3 24/31/3 56/77/3 55/75/3
f 25/35/4 26/34/4 58/81/4 57/80/4
f 28/39/3 25/35/3 57/80/3 60/85/3
f 26/34/1 27/37/1 59/83/1 58/81/1
f 27/37/2 28/39/2 60/85/2 59/83/2
f 29/43/4 30/42/4 62/89/4 61/88/4
f 32/47/1 29/43/1 61/88/1 64/93/1
f 30/42/3 31/45/3 63/91/3 62/89/3
f 31/45/2 32/47/2 64/93/2 63/91/2
